<svg width="29" height="22" viewBox="0 0 29 22" fill="none" xmlns="http://www.w3.org/2000/svg">
<path d="M4.1 1.00034H24.9C25.5757 0.989335 26.2282 1.24602 26.7153 1.71439C27.2024 2.18275 27.4845 2.82477 27.5 3.50034V18.5003C27.4845 19.1759 27.2024 19.8179 26.7153 20.2863C26.2282 20.7547 25.5757 21.0113 24.9 21.0003H4.1C3.42434 21.0113 2.77176 20.7547 2.28466 20.2863C1.79756 19.8179 1.51549 19.1759 1.5 18.5003V3.50034C1.51549 2.82477 1.79756 2.18275 2.28466 1.71439C2.77176 1.24602 3.42434 0.989335 4.1 1.00034V1.00034Z" stroke="#E9C664" stroke-width="2" stroke-linecap="round" stroke-linejoin="round"/>
<path d="M27.5 4.38708L14.5 13.2701L1.5 4.38708" stroke="#E9C664" stroke-width="2" stroke-linecap="round" stroke-linejoin="round"/>
</svg>
