<svg width="23" height="28" viewBox="0 0 23 28" fill="none" xmlns="http://www.w3.org/2000/svg">
<path d="M22 11.636C22 19.909 11.5 27 11.5 27C11.5 27 0.99997 19.909 0.99997 11.636C0.982143 8.83325 2.07833 6.1382 4.04741 4.14361C6.0165 2.14901 8.69723 1.01824 11.5 1C14.3027 1.01824 16.9834 2.14901 18.9525 4.14361C20.9216 6.1382 22.0178 8.83325 22 11.636V11.636Z" stroke="#E9C664" stroke-width="2" stroke-linecap="round" stroke-linejoin="round"/>
<path d="M11.64 16.004C13.8492 16.004 15.64 14.2132 15.64 12.004C15.64 9.79489 13.8492 8.00403 11.64 8.00403C9.43088 8.00403 7.64001 9.79489 7.64001 12.004C7.64001 14.2132 9.43088 16.004 11.64 16.004Z" stroke="#E9C664" stroke-width="2" stroke-linecap="round" stroke-linejoin="round"/>
</svg>
