<svg width="28" height="28" viewBox="0 0 28 28" fill="none" xmlns="http://www.w3.org/2000/svg">
<path d="M26.9993 20.4661V24.3801C27.0004 24.7439 26.9255 25.1038 26.7794 25.437C26.6334 25.7701 26.4193 26.069 26.151 26.3146C25.8827 26.5602 25.5661 26.7471 25.2214 26.8633C24.8767 26.9794 24.5115 27.0223 24.1493 26.9891C20.1275 26.5535 16.2636 25.1819 12.8673 22.9841C9.70973 20.9822 7.03167 18.3096 5.0233 15.1561C2.81449 11.7536 1.43958 7.87797 1.0103 3.84414C0.977934 3.48295 1.02117 3.11897 1.13724 2.7754C1.25332 2.43184 1.43969 2.11622 1.68448 1.84867C1.92927 1.58111 2.22712 1.36748 2.55903 1.22138C2.89094 1.07529 3.24965 0.999945 3.6123 1.00014H7.5343C8.16804 0.993552 8.78259 1.21752 9.26348 1.63035C9.74437 2.04317 10.0588 2.61671 10.1483 3.24414C10.3138 4.49678 10.6208 5.72663 11.0633 6.91014C11.2392 7.37716 11.2772 7.88485 11.173 8.37287C11.0688 8.86089 10.8266 9.30873 10.4753 9.66314L8.8153 11.3201C10.678 14.5878 13.3879 17.2922 16.6593 19.1481L18.3193 17.4911C18.6751 17.1403 19.1238 16.8986 19.6125 16.7946C20.1012 16.6906 20.6095 16.7286 21.0773 16.9041C22.2634 17.3457 23.4955 17.652 24.7503 17.8171C25.3849 17.9058 25.9648 18.2247 26.3795 18.7132C26.7942 19.2016 27.0148 19.8256 26.9993 20.4661Z" stroke="#E9C664" stroke-width="2" stroke-linecap="round" stroke-linejoin="round"/>
</svg>
