<svg width="65" height="97" viewBox="0 0 65 97" fill="none" xmlns="http://www.w3.org/2000/svg">
<path d="M21.8894 72.4166L27.801 51.5296C27.801 51.5296 15.7204 23.1782 12.4385 15.2121C9.15662 7.24596 15.8521 1.5 15.8521 1.5L32.6184 41.4624H32.6345L49.4017 1.5C49.4017 1.5 56.0988 7.24596 52.8169 15.2121C49.535 23.1782 37.4527 51.5296 37.4527 51.5296L43.3239 72.2714" stroke="#E9C664" stroke-width="3" stroke-linecap="round" stroke-linejoin="round"/>
<path d="M27.1714 82.7337C27.1716 85.6016 26.2007 88.386 24.4153 90.6381C22.6299 92.8902 20.1341 94.4788 17.33 95.1478C14.5259 95.8168 11.577 95.5273 8.95858 94.3258C6.34017 93.1244 4.20483 91.0811 2.89671 88.5253C1.58859 85.9695 1.18392 83.05 1.74793 80.2375C2.31194 77.425 3.81175 74.8833 6.00566 73.0221C8.19956 71.161 10.9597 70.0887 13.8412 69.9782C16.7227 69.8677 19.5577 70.7255 21.8892 72.4131" stroke="#E9C664" stroke-width="3" stroke-linecap="round" stroke-linejoin="round"/>
<path d="M43.3226 72.2714C45.677 70.636 48.5149 69.8335 51.3821 69.9921C54.2494 70.1508 56.9802 71.2614 59.1376 73.1464C61.295 75.0314 62.7542 77.5816 63.2817 80.389C63.8092 83.1964 63.3745 86.0987 62.0471 88.6313C60.7198 91.1639 58.5765 93.1804 55.9603 94.3581C53.3442 95.5358 50.4064 95.8067 47.6172 95.1273C44.8279 94.4479 42.3485 92.8575 40.5756 90.6107C38.8028 88.3639 37.8391 85.5906 37.8387 82.7346" stroke="#E9C664" stroke-width="3" stroke-linecap="round" stroke-linejoin="round"/>
<path d="M27.1715 82.7336C27.2559 79.1928 27.9511 58.0868 32.5078 58.0868C37.0797 58.0868 37.7554 79.2012 37.8339 82.565" stroke="#E9C664" stroke-width="3" stroke-linecap="round" stroke-linejoin="round"/>
</svg>
