<svg width="62" height="53" viewBox="0 0 62 53" fill="none" xmlns="http://www.w3.org/2000/svg">
<path d="M29.0666 28.697H12.0366V43.203H29.0666V28.697Z" stroke="#E9C664" stroke-width="3" stroke-linecap="round" stroke-linejoin="round"/>
<path d="M55.4216 23.773V50.681" stroke="#E9C664" stroke-width="3" stroke-linecap="round" stroke-linejoin="round"/>
<path d="M6.65576 23.8081V50.6821" stroke="#E9C664" stroke-width="3" stroke-linecap="round" stroke-linejoin="round"/>
<path d="M59.8466 15.077H2.22559L8.82559 2H53.1586L57.3286 10.152L59.8466 15.077Z" stroke="#E9C664" stroke-width="3" stroke-linecap="round" stroke-linejoin="round"/>
<path d="M45.3925 18.986C45.3925 21.863 42.1655 24.197 38.1865 24.197C34.2075 24.197 30.9805 21.863 30.9805 18.986" stroke="#E9C664" stroke-width="3" stroke-linecap="round" stroke-linejoin="round"/>
<path d="M59.8475 15.077L59.8035 18.992C59.7829 20.0473 59.3672 21.0564 58.6385 21.82C57.7628 22.7501 56.6509 23.4247 55.4215 23.772C54.5047 24.0507 53.5518 24.1926 52.5935 24.193C51.8853 24.194 51.179 24.1196 50.4865 23.971C48.9839 23.6756 47.6087 22.9242 46.5485 21.819C45.8373 21.0795 45.4227 20.1043 45.3835 19.079V15.079L59.8475 15.077Z" stroke="#E9C664" stroke-width="3" stroke-linecap="round" stroke-linejoin="round"/>
<path d="M31.0466 15.075L30.9796 18.988C30.9796 21.867 27.7516 24.188 23.7696 24.188C19.7876 24.188 16.5696 21.863 16.5696 18.988" stroke="#E9C664" stroke-width="3" stroke-linecap="round" stroke-linejoin="round"/>
<path d="M2.15259 18.988C2.15259 21.177 4.01559 23.038 6.65259 23.807C7.53122 24.0655 8.44272 24.1952 9.35859 24.192C13.3406 24.192 16.5686 21.867 16.5686 18.992V15.075H2.23059L2.15259 18.988Z" stroke="#E9C664" stroke-width="3" stroke-linecap="round" stroke-linejoin="round"/>
<path d="M49.8056 50.682V28.697H36.7656V50.682" stroke="#E9C664" stroke-width="3" stroke-linecap="round" stroke-linejoin="round"/>
<path d="M59.8466 50.6819H2.22559" stroke="#E9C664" stroke-width="3" stroke-linecap="round" stroke-linejoin="round"/>
<path d="M45.2275 38.673V40.705" stroke="#E9C664" stroke-width="3" stroke-linecap="round" stroke-linejoin="round"/>
</svg>
